<svg width="55" height="46" viewBox="0 0 55 46" fill="none" xmlns="http://www.w3.org/2000/svg">
<path d="M21.165 45.43H20.9421L12.3598 21.0206L6.22961 3.41019C6.53535 3.04835 6.8709 2.7128 7.23274 2.40706C8.25371 1.5309 9.44223 0.871585 10.726 0.469204C12.0098 0.0668219 13.362 -0.0702109 14.7004 0.0664394L23.3942 24.8102L29.5244 42.1977C28.4718 43.3408 27.1705 44.2268 25.7211 44.7872C24.2717 45.3477 22.7129 45.5676 21.165 45.43Z" fill="#C49601"/>
<path d="M4.78059 45.5415C4.13493 45.4723 3.50943 45.2756 2.94039 44.9628C2.37135 44.65 1.87009 44.2273 1.46571 43.7192C1.06133 43.2112 0.761871 42.6278 0.584717 42.0031C0.407562 41.3784 0.356237 40.7247 0.43372 40.08L3.88893 8.87167C4.12571 6.69999 5.06496 4.66497 6.56393 3.07584L7.45559 2.18417C8.48037 1.36152 9.65838 0.750686 10.9212 0.387143C12.184 0.0236006 13.5065 -0.0854021 14.8118 0.0664644L10.2421 41.1946C10.0857 42.4927 9.44961 43.6853 8.45872 44.5383C7.94688 44.9483 7.35635 45.2488 6.72369 45.4214C6.09103 45.5939 5.42969 45.6348 4.78059 45.5415Z" fill="#FFC300"/>
<path d="M42.565 45.3184L33.091 27.8195L26.6265 15.8934L27.1838 15.3361C28.1731 14.4455 29.3409 13.776 30.6094 13.3724C31.8779 12.9688 33.2179 12.8403 34.54 12.9955L34.7629 13.2184L44.1254 30.7174L50.59 42.532L50.0327 42.9778C49.0265 43.8774 47.8397 44.5516 46.5518 44.9552C45.2639 45.3589 43.9046 45.4827 42.565 45.3184Z" fill="#C49601"/>
<path d="M42.4535 45.3185L44.4597 27.5967C44.5342 26.9404 44.7403 26.306 45.0659 25.7314C45.3915 25.1569 45.8298 24.654 46.3545 24.2529C46.8424 23.8398 47.4133 23.5364 48.0287 23.3633C48.6441 23.1902 49.2895 23.1515 49.9212 23.2498C50.5767 23.305 51.2143 23.4916 51.7962 23.7984C52.378 24.1051 52.8923 24.5258 53.3082 25.0353C53.7242 25.5449 54.0334 26.1329 54.2174 26.7644C54.4015 27.3959 54.4566 28.058 54.3795 28.7112L53.4879 36.6248C53.1985 39.0271 52.0505 41.2438 50.2556 42.8664C50.1441 42.9779 49.9212 43.0894 49.8097 43.3123C48.7765 44.1154 47.5946 44.7061 46.3321 45.0504C45.0696 45.3948 43.7514 45.4859 42.4535 45.3185Z" fill="#FFC300"/>
<path d="M20.942 45.3188L23.617 21.3553C23.943 19.0846 25.0458 16.997 26.7378 15.448C26.8697 15.2423 27.0655 15.0857 27.2951 15.0022C29.3081 13.3974 31.866 12.638 34.4285 12.8845H34.5399L31.9764 36.9594C31.678 39.0706 30.6998 41.027 29.1899 42.5324C28.1327 43.6149 26.8341 44.4317 25.4006 44.916C23.967 45.4003 22.4392 45.5383 20.942 45.3188Z" fill="#FFC300"/>
</svg>
