<svg width="132" height="17" viewBox="0 0 132 17" fill="none" xmlns="http://www.w3.org/2000/svg">
<path d="M13.7279 1.91299C13.7279 1.49473 13.4153 1.18213 12.997 1.18213H0.726464C0.312602 1.18213 0 1.49473 0 1.91299V15.0157C0 15.4296 0.312602 15.7421 0.726464 15.7421H3.84804C4.2619 15.7421 4.5745 15.4296 4.5745 15.0157V10.9563H11.1258C11.5441 10.9563 11.8523 10.6481 11.8523 10.2299V8.15174C11.8523 7.73348 11.5441 7.42088 11.1258 7.42088H4.5745V4.71757H12.997C13.4153 4.71757 13.7279 4.40497 13.7279 3.99111V1.91299Z" fill="#FFC300"/>
<path d="M28.0766 9.29647C28.0766 9.29647 30.8856 8.67127 30.8856 5.96796C30.8856 3.36591 28.7018 1.18213 24.1229 1.18213H16.5325C16.1186 1.18213 15.806 1.49473 15.806 1.91299V15.0157C15.806 15.4296 16.1186 15.7421 16.5325 15.7421H19.6541C20.0679 15.7421 20.3805 15.4296 20.3805 15.0157V10.7494H23.0838C24.2286 10.7494 24.6248 11.1677 24.955 11.7884L26.7249 15.0157C26.9539 15.4296 27.2445 15.7421 28.0766 15.7421H31.2994C31.819 15.7421 31.9863 15.3239 31.819 15.0157L30.0535 11.7884C29.01 9.91726 28.0766 9.5034 28.0766 9.5034V9.29647ZM20.3805 7.42088V4.51064H24.1229C25.4746 4.51064 26.0997 5.13583 26.0997 5.96796C26.0997 6.80009 25.4746 7.42088 24.1229 7.42088H20.3805Z" fill="#FFC300"/>
<path d="M41.6548 12.7265C39.3697 12.7265 37.9124 11.2692 37.9124 8.46463C37.9124 5.65565 39.3697 4.19833 41.6548 4.19833C43.9442 4.19833 45.4016 5.65565 45.4016 8.46463C45.4016 11.2692 43.9442 12.7265 41.6548 12.7265ZM41.6548 0.768555C36.1469 0.768555 33.131 3.78446 33.131 8.46463C33.131 13.1404 36.1469 16.1563 41.6548 16.1563C47.1671 16.1563 50.183 13.1404 50.183 8.46463C50.183 3.78446 47.1671 0.768555 41.6548 0.768555Z" fill="#FFC300"/>
<path d="M63.9284 15.7421C64.5536 15.7421 64.9499 15.3239 65.0732 15.0157L67.8601 8.15174H68.0671V15.0157C68.0671 15.4296 68.3797 15.7421 68.7979 15.7421H71.9151C72.3334 15.7421 72.646 15.4296 72.646 15.0157V1.91299C72.646 1.49473 72.3334 1.18213 71.9151 1.18213H67.5475C66.9267 1.18213 66.5305 1.60039 66.4072 1.91299L62.7661 10.7494H62.5592L58.9181 1.91299C58.7948 1.60039 58.3985 1.18213 57.7733 1.18213H53.4058C52.9919 1.18213 52.6793 1.49473 52.6793 1.91299V15.0157C52.6793 15.4296 52.9919 15.7421 53.4058 15.7421H56.5274C56.9412 15.7421 57.2538 15.4296 57.2538 15.0157V8.15174H57.4607L60.2697 15.0157C60.393 15.3239 60.7893 15.7421 61.4145 15.7421H63.9284Z" fill="#FFC300"/>
<path d="M84.5424 1.18213C84.0229 1.18213 83.7103 1.49473 83.6046 1.91299L81.6278 10.1286H81.4208L79.237 1.91299C79.1314 1.49473 78.8232 1.18213 78.3037 1.18213H74.9751C74.6626 1.18213 74.3279 1.49473 74.4556 1.91299L78.0923 15.0157C78.22 15.4296 78.5106 15.7421 79.0301 15.7421H83.1908C83.7103 15.7421 84.0229 15.4296 84.1241 15.0157L86.3079 7.00702H86.5149L88.6986 15.0157C88.8043 15.4296 89.1169 15.7421 89.6364 15.7421H93.7971C94.3166 15.7421 94.6072 15.4296 94.7305 15.0157L98.3716 1.91299C98.4948 1.49473 98.1646 1.18213 97.852 1.18213H94.5235C94.004 1.18213 93.6914 1.49473 93.5857 1.91299L91.402 10.1286H91.195L89.2182 1.91299C89.1169 1.49473 88.8043 1.18213 88.2848 1.18213H84.5424Z" fill="#FFC300"/>
<path d="M114.323 1.91299C114.323 1.49473 114.01 1.18213 113.596 1.18213H100.907C100.494 1.18213 100.181 1.49473 100.181 1.91299V15.0157C100.181 15.4296 100.494 15.7421 100.907 15.7421H113.596C114.01 15.7421 114.323 15.4296 114.323 15.0157V12.9332C114.323 12.5193 114.01 12.2067 113.596 12.2067H104.756V10.1286H111.307C111.721 10.1286 112.033 9.816 112.033 9.39773V7.31962C112.033 6.90135 111.721 6.58875 111.307 6.58875H104.756V4.71757H113.596C114.01 4.71757 114.323 4.40497 114.323 3.99111V1.91299Z" fill="#FFC300"/>
<path d="M130.961 5.2371C130.961 3.05331 129.09 1.18213 124.824 1.18213H117.339C116.921 1.18213 116.608 1.49473 116.608 1.91299V15.0157C116.608 15.4296 116.921 15.7421 117.339 15.7421H125.656C130.023 15.7421 132 13.7653 132 11.4803C132 8.77254 128.878 8.15174 128.878 8.15174V7.94481C128.878 7.94481 130.961 7.31962 130.961 5.2371ZM125.656 9.91726C126.695 9.91726 127.219 10.4368 127.219 11.1677C127.219 11.8941 126.695 12.4136 125.656 12.4136H121.187V9.91726H125.656ZM124.824 4.51064C125.783 4.51064 126.175 4.9289 126.175 5.54969C126.175 6.17489 125.761 6.58875 124.824 6.58875H121.187V4.51064H124.824Z" fill="#FFC300"/>
</svg>
